<?xml version="1.0" encoding="UTF-8"?>
<svg id="Calque_2" data-name="Calque 2" xmlns="http://www.w3.org/2000/svg" viewBox="0 0 58.55 97.55">
  <defs>
    <style>
      .cls-1 {
        stroke-width: 0px;
      }
    </style>
  </defs>
  <g id="Calque_1-2" data-name="Calque 1">
    <path class="cls-1" d="M24.76,6.6c-2.61,12.86-6.3,25.64-12.26,37.37,3.87-.73,7.71-1.57,11.55-2.43,1.79-.4,3.57-.82,5.35-1.23-1.54-11.56-2.67-23.17-4.44-34.69-.07.33-.13.66-.2.98ZM4.93,47.59c.45.16.89.32,1.34.49.35.13.7.27,1.04.4.84-1.01,1.54-2.13,2.2-3.27-1.91.35-3.84.63-5.73,1.11-1.81.48.55,1.01,1.15,1.27ZM9.21,49.23c10.12,3.87,18.88,10.98,25.02,19.88-1.93-9.26-3.46-18.61-4.71-27.99-5.77,1.34-11.62,2.61-17.44,3.64-.89,1.55-1.86,3.07-3.06,4.4.06.03.13.05.19.08ZM36.55,97.55c-.41-.01-.84-.02-1.24-.13-.05,0-.15-.07-.08-.11,2.59-3.46,5.14-6.95,7.68-10.44,4.42-6.14,11.75-16.13,12.41-23.68.42-7.57-11.58-3.42-9.42-10.13,1.46-3.54,3.74-6.79,4.51-10.6.75-3.29-1.38-5.44-4.69-4.7-4.56.65-9.04,1.73-13.53,2.74,1.59,12,3.7,23.94,6.42,35.74.27,1.58,1.09,2.98,1.51,4.52.06.38.48,1.26.18,1.49-.75.18-1.54.15-2.31.09-.47.03-.68-.29-.82-.7-.47-1.23-.75-2.52-1.04-3.8-1.03-2.42-2.29-4.75-3.7-6.97-5.85-9.11-14.37-16.59-24.38-20.78-1.31,1.54-6.31.38-2.81.35.46-.27.86-.63,1.23-1-1.23-.49-2.45-.97-3.69-1.43-.91-.38-1.94-.55-2.74-1.14-.82-.98,8.88-2.07,9.9-2.42C16.99,30.77,20.72,15.66,23.36.59c-.01-.86,2.2-.55,2.76-.46.66.45.65,1.56.9,2.28,2.35,12.32,3.33,24.87,5.07,37.28,4.5-.8,18.71-5.08,21.3-.33,1.62,4.09-2.85,9.86-4.24,13.7-2,5.91,7.72,3.26,9.16,8.11,1.78,5.81-6.44,17.59-9.77,22.47-1.83,2.54-3.68,5.05-5.52,7.58-1.51,2.06-3.03,4.12-4.56,6.17-.6.21-1.27.16-1.9.17Z"/>
  </g>
</svg>