<?xml version="1.0" encoding="UTF-8"?>
<svg id="Calque_2" data-name="Calque 2" xmlns="http://www.w3.org/2000/svg" viewBox="0 0 239.32 94.84">
  <defs>
    <style>
      .cls-1 {
        fill: black;
        stroke-width: 0px;
      }
    </style>
  </defs>
  <g id="Calque_1-2" data-name="Calque 1">
    <g>
      <path class="cls-1" d="M.18,94.48s-.2-.1-.18-.15c.53-1.15,1.2-2.23,1.96-3.24,6.66-9.39,12.9-19.08,19.23-28.7,5.76-9.14,11.55-18.26,18.02-26.92,6.62-9,13.77-17.58,20.97-26.11,1.59-1.86,3.2-3.71,4.91-5.45,1.45-1.4,2.84-2.96,4.68-3.86.68-.18,1.37.22,1.96.51,1.23.68.44,2.43.21,3.49-3.07,8.96-7.59,17.35-11.86,25.78-4.15,8.1-8.63,16.11-11.49,24.78-.59,1.91-1.08,3.87-1.3,5.86-.09.82-.13,1.64-.17,2.47,0,.06-.26-.02-.27-.02-.57-.17-1.14-.41-1.64-.74-.25-.15,0-1.16-.03-1.47.26-3.55,1.36-6.96,2.64-10.26,4.72-11.79,11.44-22.64,16.85-34.11,1.59-3.29,3.13-6.6,4.48-10,.65-1.7,1.44-3.43,1.58-5.26-2.26,1.43-4.06,3.45-5.89,5.37-3.87,4.21-7.47,8.66-11.16,13.03-8.75,10.47-16.97,21.38-24.42,32.82-8.19,12.89-16.59,25.66-25.32,38.19-1.01,1.4-2.06,2.77-2.76,4.36-.17,0-.34-.06-.52-.13-.16-.07-.32-.16-.47-.23Z"/>
      <path class="cls-1" d="M55.95,63.71c-.42-.16-.04-.53.15-.74.43-.51.82-1.04,1.22-1.57,2.47-3.27,4.7-6.73,7.35-9.86,1.66-2.01,3.57-3.78,5.48-5.54.98-.9,1.9-1.89,3.01-2.63.47-.32,1.35.3,1.77.54.33.3.08.82,0,1.18-.71,2.12-1.87,4.05-2.72,6.11-1.39,3.31-2.53,6.74-3.59,10.17,2.42-1.82,4.63-3.93,6.65-6.18.66-.74,1.32-1.49,1.89-2.3.35-.07,1.73.56,1.9.83-1.88,2.32-3.97,4.46-6.23,6.42-1.15.94-2.26,2.04-3.64,2.64-.73.22-1.48-.27-2.11-.59-.84-.28.38-2.7.51-3.38.98-2.83,1.93-5.68,3.14-8.42.8-1.79,1.76-3.52,2.49-5.34-2.4,2.22-4.91,4.34-7.03,6.85-3.17,3.66-5.71,7.8-8.73,11.58.04.02.23.14.2.16-.2.16-.41.32-.61.48-.19,0-.38-.06-.57-.14-.19-.08-.37-.18-.54-.27Z"/>
      <path class="cls-1" d="M86.66,64.74c-2.9-1.58-1.5-5.51-.77-8,.69-2.43,2.45-4.92,2.11-7.5-1.33,1-2.08,2.57-3.07,3.87-1.56,2.09-2.98,4.27-4.06,6.65-.26,0-.8-.24-.97-.42.25-.51.51-1.01.76-1.52,1.14-2.35,2.83-4.36,4.27-6.52.64-.88,1.22-1.86,2.11-2.51.48-.37,1.08.02,1.54.25,1.56,1.34-.44,5.04-.9,6.7-.61,1.64-1.09,3.34-1.28,5.09-.38,3.82,1.26,5.29,4.76,3.28,2.09-1.36,3.8-3.22,5.44-5.07.28-3.39,2.29-6.48,4.6-8.87.4-.34.86-.85,1.43-.78.67.21,1.49.42,1.95.98.08.35-.18.7-.3,1.02-.42.91-.91,1.79-1.44,2.65-1.22,1.93-2.63,3.74-4.13,5.46-.17,1.65.32,3.35,1.41,4.61,2.6,2.99,8.74-.58,11.68-1.77,1.65-.66,3.05-1.7,4.37-2.86.64,0,1.28.41,1.86.68.01,0,.4.23.34.28-.81.67-1.61,1.36-2.51,1.91-1.31.79-2.77,1.32-4.16,1.96-2.25,1-4.62,2.03-7.14,1.9-3.01-.29-6.54-1.73-7.62-4.79-2.72,2.76-5.58,5.47-9.38,3.81-.3-.13-.61-.29-.93-.48Z"/>
      <path class="cls-1" d="M136.65,26.32c-.63,1.95-.84,4-1.09,6.02.49-2.27,1.14-4.51,1.39-6.82-.11.26-.21.53-.3.8ZM126.11,59.44c1.91-1.95,2.59-4.75,3.58-7.22,1.27-3.62,2.45-7.27,3.56-10.94-2.72,4.34-7.68,13.07-7.14,18.16ZM129.8,62.28c-.98-.48-.54-.64.09-1.18,1.49-1.16,3.16-2.07,4.8-3,3.68-2.05,7.38-4.06,11.2-5.83,2.73-1.42,14.26-6.01,11.37-10.06-1.26-1.31-3.16-1.67-4.79-2.36-2.62-.94-5.3-1.76-7.77-3.06-3.56-1.75-4-3.96-1.65-7.12-2.62,2.47-5.04,5.14-7.25,7.99-1.54,5.94-3.41,11.81-5.51,17.58-.75,1.74-1.33,3.75-2.82,5.02-.82.51-1.96-.22-2.61-.73-1.92-3.24,2.79-12,4.37-15.23,1.37-2.41,2.87-4.73,4.48-6.99.3-.39.62-.78.92-1.17.29-1.16.57-2.33.84-3.5-.45-.13-.87-.24-1.17-.54.16-1.41.34-2.81.58-4.21.28-1.29.57-2.62,1.24-3.77.17-.45.65-.35,1-.19.42.18,1.02.35,1.06.89.23,1.41-.17,2.85-.42,4.24-.32,1.48-.65,2.96-.98,4.44,3.53-3.92,7.34-7.66,11.62-10.77,1.32-.9,2.71-1.72,4.19-2.33.77-.17,1.57.4,2.22.76h0c1.05.57-4.71,4.21-5.29,4.9-2.53,2.18-8.65,7.63-4.16,10.6,1.56.99,3.4,1.42,5.11,2.08,1.88.67,3.77,1.32,5.58,2.15,2.98,1.34,5.71,3.04,2.59,6.18-3.18,3.04-7.41,4.63-11.29,6.57-2.85,1.34-5.63,2.83-8.39,4.36-2.47,1.43-5.12,2.65-7.26,4.56.06.04.49.26.38.34-.24.02-.49.06-.73,0-.32-.09-.63-.2-.93-.33-.22-.09-.43-.2-.64-.3Z"/>
      <path class="cls-1" d="M215.99,22.74c-5.19,4.9-8.38,11.47-11.6,17.73,6.35-5.41,11.92-11.44,14.1-19.7-.9.57-1.72,1.25-2.51,1.97ZM158.46,56.99c-2.58-1.44,2.54-5.55,3.69-6.7,2.85-2.5,5.67-5.18,9.08-6.9.84-.48,1.84-.24,2.56.33.13.17.13.43.11.63-.42-.01-.86-.27-1.22-.49-3.23,1.53-5.88,4.05-8.54,6.39-1.59,1.62-5.04,4.13-4.92,6.55,5.06-2,8.86-6.22,13.13-9.47,1.3-.99,2.63-1.94,4.05-2.75.53-.3,1.12-.69,1.73-.37.88.35,1.99.62,1.35,1.79-1.05,2.68-3.22,5.55-2.69,8.54,3.85-.47,6.85-3.24,10-5.26,1.22-1.53,2.81-2.7,4.35-3.9,1.46-1.24,1.47-1.03,3.14-.22.02,0,.4.23.34.28-.59.58-1.22,1.12-1.83,1.68-1.12.99-2.28,1.94-3.49,2.81-1.31,1.58-2.5,3.82-1.77,5.9,1.94-.94,3.41-2.61,5.02-4,2.5-2.32,4.81-4.82,7.26-7.19,1.39-4.13,3.57-7.95,5.62-11.78,2.26-3.93,4.62-7.9,7.97-11,1.3-1.19,2.7-2.39,4.39-2.97,1.05-.24,2.45.48,3.25,1.12.34,1.11-.43,2.57-.74,3.66-1.01,2.82-2.29,5.56-4.08,7.98-2.19,2.97-4.77,5.64-7.51,8.1-1.56,1.38-3.12,2.75-4.69,4.12-.93.96-2.24,1.62-2,3.16,2.93-.56,5.7-1.82,8.47-2.9,1.98-.82,3.95-1.76,6.04-2.27,1.19-.32,2.39.28,3.37.92.57.55-.38,1.12-.73,1.51-1.47,1.24-3.13,2.22-4.75,3.24-1.18.86-4.51,2.41-4.04,4.14,2.91.08,5.71-.82,8.55-1.34,3.02-.58,6.08-1.01,9.15-1.17,2.25-.09,4.43-.09,6.66-.23,1.92-.2,2.6-.33,4.35.73.07.04.14.09.2.15.01.01.11.11.02.12-.66.05-1.32.11-1.97.16-5.35.19-10.71.24-15.96,1.39-3.92.67-8.23,2.41-12,.35-.73-.35-1.74-.91-1.52-1.86.89-2.23,6.1-4.35,8.13-6.1-3.04,1.28-6.07,2.56-9.19,3.6-2.3.85-4.01.98-6.17-.32-2.11,2.13-4.21,4.28-6.44,6.3-1.54,1.29-2.98,3.03-4.99,3.56-.87.08-1.69-.35-2.46-.7-1.44-.53-1.91-2.16-1.61-3.55-2.93,2-7.39,4.29-10.29,1.06-.73-2.41,1.41-5.74,2.42-7.91-4.05,2.43-7.36,5.85-11.2,8.57-1.38.93-2.74,1.9-4.24,2.61-.95.51-1.91.53-2.84.13-.16-.07-.33-.16-.49-.25Z"/>
      <path class="cls-1" d="M6.04,63.82c-2.75-1.7,6.41-7.13,7.66-8.22,4.53-3.24,9.28-6.14,13.73-9.49,2.56-1.81,5.28-3.4,7.7-5.39.57-.51,1.09-1.09,1.61-1.65.09-.01.17.03.25.06.03.01.07.03.1.04.02,0,.34.16.31.19-.96,1.06-1.99,2.08-3.18,2.89-2.94,1.97-5.88,3.96-8.7,6.11-4.35,3.02-8.79,5.91-13.04,9.06-1.41,1.12-2.96,2.06-4.24,3.33-.94.87-2.69,2.86-1.21,3.28,1.69.18,3.35-.26,5-.55,1.95-.36,3.88-.83,5.8-1.34,4.14-1.11,8.3-2.11,12.44-3.23,10.92-3.19,21.89-6.22,32.97-8.83,22.97-5.71,46.28-10.09,69.77-12.95,17.7-1.9,35.46-3.18,53.28-3.13,9.2-.15,18.4.55,27.49,1.91,2.64.35,5.25.83,7.87,1.27.81.1,1.64.16,2.37.57.18.09.37.17.51.32.02.04-.03.05-.07.04-8.15-1.36-16.32-2.62-24.58-3.15-14.38-.59-28.82-.21-43.17.77-33.73,2.3-67.08,8.41-99.81,16.73-12.9,3.19-25.59,7.16-38.5,10.31-2.03.54-4.09.98-6.15,1.35-1.84.33-3.86.77-5.62.01-.2-.09-.39-.19-.58-.3Z"/>
    </g>
  </g>
</svg>